<?xml version="1.0" encoding="UTF-8"?>
<!-- Generator: Adobe Illustrator 19.2.1, SVG Export Plug-In . SVG Version: 6.00 Build 0)  -->
<svg version="1.1" id="Layer_1" xmlns="http://www.w3.org/2000/svg" xmlns:xlink="http://www.w3.org/1999/xlink" x="0px" y="0px" viewBox="0 0 573 103.7" style="enable-background:new 0 0 573 103.7;" xml:space="preserve">
<style type="text/css">
	.st0{fill:#5C5C60;}
	.st1{fill:#0081C3;}
</style>
<g>
	<g>
		<path class="st0" d="M110.1,92.3l8-45.9h-8.2l2-11.2l8.2-0.1l0.6-4.9c0.4-3.2,1.2-6,2.5-8.5c1.2-2.5,2.9-4.6,4.8-6.4    c2-1.7,4.3-3.1,6.9-4c2.6-0.9,5.6-1.4,8.8-1.3c1.4,0,2.7,0.2,4.1,0.4c1.3,0.2,2.7,0.5,4,0.7l-1.3,11.9c-0.7-0.2-1.4-0.3-2.2-0.4    c-0.7-0.1-1.5-0.2-2.2-0.2c-2.6,0-4.8,0.6-6.7,2c-1.9,1.3-3,3.3-3.5,5.9l-0.8,5h11l-2,11.2h-11l-8,45.9H110.1z"/>
		<path class="st0" d="M169.4,93.4c-3.9-0.1-7.4-0.8-10.5-2.3c-3.1-1.4-5.7-3.4-7.7-5.9c-2.1-2.5-3.6-5.4-4.5-8.7s-1.2-6.9-0.9-10.7    l0.2-2.1c0.4-4,1.4-7.8,3-11.4c1.5-3.6,3.6-6.8,6.1-9.5c2.5-2.7,5.6-4.9,9-6.5s7.3-2.3,11.6-2.2c4,0.1,7.4,0.9,10.2,2.5    c2.8,1.6,5.1,3.6,6.8,6.2s2.8,5.6,3.4,8.9c0.6,3.4,0.7,6.8,0.3,10.5l-1,6.5h-34.9c-0.1,1.7,0,3.3,0.4,4.7c0.4,1.5,1,2.8,1.9,3.9    c0.9,1.1,2,2,3.3,2.6c1.3,0.7,2.9,1,4.7,1c2.8,0.1,5.5-0.4,7.9-1.6c2.4-1.1,4.6-2.7,6.5-4.7l6.8,8.5c-1.2,1.8-2.6,3.3-4.4,4.6    c-1.7,1.3-3.6,2.4-5.5,3.2c-2,0.8-4.1,1.4-6.2,1.8C173.6,93.3,171.4,93.4,169.4,93.4z M174.9,46.5c-1.8,0-3.4,0.3-4.8,0.9    c-1.4,0.7-2.6,1.6-3.7,2.7c-1.1,1.1-2,2.4-2.8,3.9c-0.8,1.5-1.5,2.9-2.1,4.4H182l0.3-1.4c0.2-1.4,0.3-2.7,0.1-4s-0.5-2.4-1.2-3.3    c-0.6-0.9-1.5-1.7-2.5-2.3C177.7,46.9,176.4,46.5,174.9,46.5z"/>
		<path class="st0" d="M230.2,21.3l-2.5,14h9.5l-2,11.2h-9.5L220.9,75c-0.2,1.8-0.1,3.2,0.4,4.1c0.5,0.9,1.7,1.5,3.6,1.5    c0.8,0.1,1.5,0.1,2.3,0c0.7-0.1,1.5-0.2,2.3-0.2l-1.1,11.7c-1.4,0.5-2.8,0.8-4.2,1c-1.4,0.2-2.9,0.3-4.4,0.2    c-2.5,0-4.7-0.5-6.6-1.3s-3.3-2-4.5-3.5c-1.1-1.5-2-3.2-2.4-5.2c-0.5-2-0.6-4.3-0.4-6.7l4.9-30.1h-8.1l2-11.2h8.1l2.4-14H230.2z"/>
		<path class="st0" d="M260.8,81.2c2.7,0.1,5-0.7,6.9-2.2c1.9-1.6,3.1-3.6,3.6-6.2l14-0.1c-0.2,3.2-1,6.2-2.5,8.8    c-1.5,2.6-3.3,4.8-5.6,6.6c-2.3,1.8-4.9,3.2-7.8,4.2s-5.9,1.4-9,1.3c-4.1-0.1-7.6-0.9-10.5-2.5s-5.3-3.7-7.1-6.3s-3-5.7-3.7-9.1    c-0.7-3.4-0.8-7-0.4-10.8l0.2-1.5c0.5-4,1.4-7.7,3-11.3c1.5-3.6,3.5-6.7,6-9.3c2.5-2.7,5.4-4.8,8.9-6.3c3.4-1.5,7.2-2.2,11.5-2.1    c3.3,0.1,6.3,0.7,8.9,1.8c2.6,1.1,4.8,2.7,6.5,4.7c1.8,2,3.1,4.3,4,7c0.9,2.7,1.3,5.7,1.3,8.9h-13.9c0-1.3-0.1-2.5-0.4-3.7    c-0.3-1.2-0.7-2.3-1.3-3.2c-0.6-0.9-1.4-1.7-2.4-2.2c-1-0.5-2.2-0.9-3.7-0.9c-2.4-0.1-4.3,0.4-5.9,1.4c-1.6,1-2.9,2.3-3.9,4    s-1.8,3.5-2.3,5.5c-0.5,2-0.9,4-1.2,5.9l-0.2,1.5c-0.2,1.6-0.3,3.3-0.4,5.2s0.1,3.7,0.5,5.3c0.4,1.6,1.2,3,2.3,4.2    C256.9,80.5,258.6,81.1,260.8,81.2z"/>
		<path class="st0" d="M313.8,41.6c2-2.3,4.3-4.1,6.9-5.4c2.6-1.3,5.4-2,8.5-2c3.2,0.1,5.9,0.7,8,2c2.1,1.2,3.8,2.9,5,4.9    c1.2,2.1,2,4.4,2.3,7s0.4,5.4,0.1,8.2l-6,36h-14.9l6.1-36.1c0.2-1.4,0.2-2.6,0.1-3.8s-0.4-2.2-0.9-3s-1.2-1.5-2.1-2    c-0.9-0.5-2.2-0.8-3.7-0.8c-2.2-0.1-4.2,0.4-5.9,1.3c-1.7,0.9-3.3,2.2-4.7,3.9l-7.2,40.6h-14.9l14-81h14.9L313.8,41.6z"/>
		<path class="st1" d="M397.6,54c-1.2-4.2-3.1-7.4-5.9-9.8c-2.8-2.3-6.4-3.5-10.7-3.5c-3.3,0-6.2,0.7-8.5,2.1    c-2.4,1.4-4.3,3.2-5.8,5.5c-1.5,2.3-2.6,4.8-3.3,7.7c-0.7,2.8-1.1,5.7-1.1,8.6c0,3,0.3,5.8,1,8.6c0.7,2.8,1.8,5.3,3.3,7.6    c1.5,2.2,3.5,4,5.8,5.3c2.4,1.3,5.3,2,8.6,2c4.8,0,8.7-1.3,11.6-4c2.9-2.7,4.8-6.3,5.6-11h6.9c-0.6,3.1-1.5,5.9-2.8,8.5    c-1.3,2.6-2.9,4.8-4.9,6.6c-2,1.8-4.3,3.3-7.1,4.3c-2.7,1-5.9,1.5-9.4,1.5c-4.5,0-8.3-0.8-11.6-2.3c-3.2-1.5-5.9-3.6-8-6.2    c-2.1-2.6-3.6-5.7-4.6-9.3c-1-3.6-1.5-7.5-1.5-11.6c0-3.9,0.6-7.6,1.7-11.2c1.1-3.6,2.8-6.7,4.9-9.5c2.2-2.7,4.8-4.9,8-6.5    c3.2-1.6,6.9-2.4,11.1-2.4c6.5,0,11.7,1.5,15.7,4.6c4,3.1,6.5,7.9,7.5,14.5H397.6z"/>
		<path class="st1" d="M440.2,93.9c-3.6-0.1-7-0.7-10.1-1.9c-3.1-1.2-5.9-3.1-8.2-5.5c-2.3-2.4-4.2-5.5-5.6-9.2    c-1.4-3.7-2.1-8-2.1-12.9c0-4.1,0.5-7.9,1.6-11.5c1.1-3.6,2.7-6.7,4.9-9.3c2.2-2.7,4.9-4.8,8.1-6.3c3.2-1.5,7-2.3,11.3-2.3    c4.4,0,8.2,0.8,11.4,2.3c3.2,1.5,5.9,3.6,8.1,6.3c2.2,2.6,3.8,5.7,4.8,9.3c1,3.6,1.6,7.5,1.6,11.6c0,4.5-0.6,8.5-1.8,12.1    c-1.2,3.6-3,6.7-5.2,9.3c-2.3,2.6-5,4.6-8.2,6C447.6,93.2,444.1,93.9,440.2,93.9z M459.2,64.4c0-3.3-0.4-6.4-1.1-9.3    c-0.7-2.9-1.8-5.4-3.3-7.5c-1.5-2.1-3.5-3.8-5.8-5c-2.4-1.2-5.3-1.8-8.7-1.8c-3.4,0-6.3,0.7-8.7,2c-2.4,1.3-4.4,3.1-5.9,5.3    c-1.5,2.2-2.6,4.7-3.3,7.6c-0.7,2.8-1.1,5.8-1.1,8.8c0,3.5,0.4,6.6,1.2,9.6c0.8,2.9,2,5.4,3.6,7.5c1.6,2.1,3.6,3.7,5.9,4.9    c2.4,1.2,5.1,1.7,8.2,1.7c3.4,0,6.3-0.7,8.7-2c2.4-1.3,4.4-3.1,5.9-5.3c1.5-2.2,2.6-4.8,3.3-7.6C458.9,70.3,459.2,67.4,459.2,64.4    z"/>
		<path class="st1" d="M484.8,92.3h-6.5V36.4h6.5v10.5h0.2c1.8-4.5,4.1-7.6,7-9.3c2.8-1.8,6.6-2.6,11.3-2.6v7    c-3.7-0.1-6.7,0.5-9.1,1.7c-2.4,1.2-4.3,2.9-5.7,5c-1.4,2.1-2.4,4.6-2.9,7.4c-0.5,2.8-0.8,5.8-0.8,8.9V92.3z"/>
		<path class="st1" d="M518,65.9c0,3,0.4,5.9,1.2,8.6c0.8,2.7,2,5,3.5,7c1.5,2,3.5,3.6,5.9,4.8c2.4,1.2,5.1,1.8,8.2,1.8    c4.2,0,7.9-1.1,10.9-3.3c3-2.2,5-5.4,6-9.5h7.2c-0.8,2.7-1.8,5.1-3.1,7.4c-1.3,2.3-2.9,4.2-4.9,5.9c-1.9,1.7-4.2,3-6.9,3.9    c-2.7,0.9-5.8,1.4-9.3,1.4c-4.5,0-8.3-0.8-11.6-2.3s-5.9-3.6-8-6.2c-2.1-2.6-3.6-5.7-4.6-9.3c-1-3.6-1.5-7.4-1.5-11.5    c0-4.1,0.6-8,1.8-11.6c1.2-3.6,2.9-6.8,5.1-9.5c2.2-2.7,4.9-4.8,8-6.4c3.2-1.5,6.8-2.3,10.8-2.3c7.7,0,13.8,2.6,18.1,7.9    c4.4,5.3,6.6,13,6.5,23.1H518z M554.5,60.5c0-2.7-0.4-5.3-1.1-7.7c-0.8-2.4-1.9-4.5-3.3-6.3c-1.5-1.8-3.3-3.2-5.6-4.2    c-2.2-1-4.8-1.6-7.7-1.6c-2.9,0-5.4,0.5-7.6,1.6c-2.2,1.1-4.1,2.5-5.6,4.3c-1.5,1.8-2.8,3.9-3.7,6.3c-0.9,2.4-1.5,4.9-1.8,7.6    H554.5z"/>
	</g>
	<g>
		<circle class="st1" cx="54.5" cy="51.9" r="27.2"/>
		<path class="st0" d="M100.7,35.3h-6.7c-0.6,0-1.1-0.3-1.3-0.9c-6.9-15-22.4-25.3-40.2-24.3c-21.6,1.1-38.9,18.9-39.5,40.5    c-0.1,5,0.6,9.9,2.1,14.4c0.5,1.4-0.5,2.9-2,2.9h-0.1v11.2l1.2,0c8.7,0,14.9-8.6,11.9-16.8c-1.5-4.1-2.1-8.6-1.7-13.3    c1.3-14.8,13.5-26.6,28.4-27.6c14.2-0.9,26.4,7.8,30.8,20.3c1,2.9,3.7,4.9,6.8,4.9l10.4,0l3.3-5.6L100.7,35.3z"/>
		<path class="st0" d="M90.8,48.5l-5.6,3.3l0,0.8c-0.4,16.5-13.9,29.7-30.5,29.7H12.9v11.2h41.7c23.1,0,41.7-18.7,41.7-41.7    L90.8,48.5z"/>
	</g>
</g>
</svg>