<?xml version="1.0" encoding="utf-8"?>
<!-- Generator: Adobe Illustrator 21.1.0, SVG Export Plug-In . SVG Version: 6.00 Build 0)  -->
<svg version="1.1" id="Layer_1" xmlns="http://www.w3.org/2000/svg" xmlns:xlink="http://www.w3.org/1999/xlink" x="0px" y="0px"
	 viewBox="0 0 485 447.3" style="enable-background:new 0 0 485 447.3;" xml:space="preserve">
<style type="text/css">
	.freight-gray{fill:#5C5C60;}
	.white{fill:#FFFFFF;}
</style>
<g>
	<g id="Fill">
		<path class="freight-gray" d="M443.7,89.2C426.2,62,402.8,39.6,376.4,22C355.1,8.3,330.8,0.6,306.3,0.6l-127.7,0
			c-24.3,0-48.8,7.8-70.1,21.4C-2.5,96-32.8,246.1,41.1,358c18.5,27.2,40.9,49.7,67.2,67.2c21.4,13.7,45.7,21.4,70.1,21.4h128.7
			c24.3,0,48.8-7.8,70.1-21.4C487.6,351.2,517.7,200.2,443.7,89.2z"/>
	</g>
	<path class="white" d="M365.1,40.5c-19.4-12.3-41.6-19.4-63.7-19.4l-116.8,0c-22.2,0-44.3,7-63.7,19.4c-23.9,16-44.3,36.3-61.1,61.1
		C34.9,139.4,23,181.8,23,223.7c0,41.9,11.9,84.3,36.8,122c16.8,24.7,37.2,45.1,61.1,61.1c19.4,12.4,41.6,19.4,63.7,19.4h116.8
		c22.2,0,44.3-7.1,63.7-19.4c62.9-42.2,97-112,97-183.1C462.1,152.5,428,82.7,365.1,40.5z M88.2,90.9c11.5-15,25.7-26.5,41.5-37.1
		c16.3-10.8,35.3-16.6,54.9-16.8h48.6c1.9,0.2,3.3,1.8,3.4,3.7c0,1.7-1.7,3.5-2.6,3.5L91.7,96.2c-1.8,0.7-3.5,0-4.4-1.8
		C87.3,93.5,87.3,91.8,88.2,90.9z M233.3,410.3h-48.6c-19.5-0.1-38.5-6-54.9-16.8c-15.9-10.7-30.1-22.1-41.5-37.1
		c-0.9-0.9-0.9-2.6-0.9-3.5c0.9-1.8,2.6-2.6,4.4-1.8l142.5,52.1c0.8,0,2.5,1.8,2.6,3.5C236.7,408.6,235.3,410.2,233.3,410.3z
		 M355.4,393.5c-16.8,10.6-35.4,16.8-54.9,16.8h-7.9c-2.5,0-5.3-0.9-8-1.8L74.9,332.4c-5.4-1.8-9.8-6.2-12.4-10.7
		c-16.6-30.6-25-64.3-25.2-98.1c0.1-33.8,8.6-67.5,25.2-98.1c2.7-4.4,7.1-8.8,12.4-10.7l209.7-76.2c2.6-0.9,5.4-1.8,8-1.8l7.9,0
		c19.5,0,38,6.2,54.9,16.8c59.5,39.5,91.6,104.1,91.7,169.9C447.1,289.5,414.8,354,355.4,393.5z"/>
</g>
<path class="white" d="M354,243.7v-40.1c0-2.4,2.7-3.8,4.7-2.5l29,19.6c1.7,1.2,1.8,3.7,0,4.9l-29,20.4
	C356.7,247.5,354,246.1,354,243.7z"/>
</svg>
